{
  "accessors": [
    {
      "bufferView": 0,
      "componentType": 5126,
      "count": 65535,
      "max": [
        0.22742480039596558,
        0.26023933291435242,
        10.392858505249023
      ],
      "min": [
        -0.54823064804077148,
        -0.28589585423469543,
        9.8467235565185547
      ],
      "type": "VEC3"
    },
    {
      "bufferView": 0,
      "byteOffset": 786420,
      "componentType": 5126,
      "count": 65535,
      "max": [
        0.99996852874755859,
        0.99993699789047241,
        0.99984258413314819
      ],
      "min": [
        -1,
        -1,
        -1
      ],
      "type": "VEC3"
    },
    {
      "bufferView": 1,
      "componentType": 5126,
      "count": 65535,
      "max": [
        0.9843137264251709,
        0.99607843160629272,
        0.99607843160629272,
        1
      ],
      "min": [
        0,
        0,
        0,
        1
      ],
      "type": "VEC4"
    },
    {
      "bufferView": 0,
      "byteOffset": 1572840,
      "componentType": 5126,
      "count": 65535,
      "max": [
        0.22947408258914948,
        0.78485703468322754,
        10.392858505249023
      ],
      "min": [
        -0.93657064437866211,
        -0.26335367560386658,
        9.8528718948364258
      ],
      "type": "VEC3"
    },
    {
      "bufferView": 0,
      "byteOffset": 2359260,
      "componentType": 5126,
      "count": 65535,
      "max": [
        0.99996852874755859,
        0.99984258413314819,
        1
      ],
      "min": [
        -1,
        -0.99996852874755859,
        -1
      ],
      "type": "VEC3"
    },
    {
      "bufferView": 1,
      "byteOffset": 1048560,
      "componentType": 5126,
      "count": 65535,
      "max": [
        0.90588235855102539,
        0.88235294818878174,
        0.83921569585800171,
        1
      ],
      "min": [
        0,
        0,
        0,
        1
      ],
      "type": "VEC4"
    },
    {
      "bufferView": 0,
      "byteOffset": 3145680,
      "componentType": 5126,
      "count": 57208,
      "max": [
        0.22435086965560913,
        0.80637454986572266,
        10.767878532409668
      ],
      "min": [
        -0.60151207447052002,
        -0.19572718441486359,
        9.881561279296875
      ],
      "type": "VEC3"
    },
    {
      "bufferView": 0,
      "byteOffset": 3832176,
      "componentType": 5126,
      "count": 57208,
      "max": [
        0.99996852874755859,
        1,
        0.99996852874755859
      ],
      "min": [
        -1,
        -0.99971669912338257,
        -1
      ],
      "type": "VEC3"
    },
    {
      "bufferView": 1,
      "byteOffset": 2097120,
      "componentType": 5126,
      "count": 57208,
      "max": [
        0.94117647409439087,
        0.9529411792755127,
        0.94901961088180542,
        1
      ],
      "min": [
        0,
        0,
        0,
        1
      ],
      "type": "VEC4"
    }
  ],
  "asset": {
    "extras": {
      "author": "Thomas Flynn (https://sketchfab.com/nebulousflynn)",
      "license": "CC-BY-4.0 (http://creativecommons.org/licenses/by/4.0/)",
      "source": "https://sketchfab.com/3d-models/anthidium-forcipatum-point-cloud-3493da15a8db4f34929fc38d9d0fcb2c",
      "title": "Anthidium forcipatum ♀ (Point Cloud)"
    },
    "generator": "Sketchfab-5.84.2",
    "version": "2.0"
  },
  "bufferViews": [
    {
      "buffer": 0,
      "byteLength": 4518672,
      "byteOffset": 0,
      "byteStride": 12,
      "name": "floatBufferViews",
      "target": 34962
    },
    {
      "buffer": 0,
      "byteLength": 3012448,
      "byteOffset": 4518672,
      "byteStride": 16,
      "name": "floatBufferViews",
      "target": 34962
    }
  ],
  "buffers": [
    {
      "byteLength": 7531120,
      "uri": "scene.bin"
    }
  ],
  "extensionsUsed": [
    "KHR_materials_unlit"
  ],
  "materials": [
    {
      "doubleSided": true,
      "emissiveFactor": [
        0,
        0,
        0
      ],
      "extensions": {
        "KHR_materials_unlit": {}
      },
      "name": "Scene_-_Root",
      "pbrMetallicRoughness": {
        "baseColorFactor": [
          0.5,
          0.5,
          0.5,
          1
        ],
        "metallicFactor": 0,
        "roughnessFactor": 1
      }
    }
  ],
  "meshes": [
    {
      "primitives": [
        {
          "attributes": {
            "COLOR_0": 2,
            "NORMAL": 1,
            "POSITION": 0
          },
          "material": 0,
          "mode": 0
        }
      ]
    },
    {
      "primitives": [
        {
          "attributes": {
            "COLOR_0": 5,
            "NORMAL": 4,
            "POSITION": 3
          },
          "material": 0,
          "mode": 0
        }
      ]
    },
    {
      "primitives": [
        {
          "attributes": {
            "COLOR_0": 8,
            "NORMAL": 7,
            "POSITION": 6
          },
          "material": 0,
          "mode": 0
        }
      ]
    }
  ],
  "nodes": [
    {
      "children": [
        1
      ],
      "name": "RootNode (gltf orientation matrix)",
      "rotation": [
        -0.70710678118654746,
        -0,
        -0,
        0.70710678118654757
      ]
    },
    {
      "children": [
        2
      ],
      "matrix": [
        -0.95126032829284668,
        0.29951536655426025,
        0.073445901274681091,
        0,
        0.29964768886566162,
        0.95400291681289673,
        -0.0094706714153289795,
        0,
        -0.072904221713542938,
        0.012998821213841438,
        -0.99725425243377686,
        0,
        -0.016401691362261772,
        -0.016118966042995453,
        20.614725112915039,
        1
      ],
      "name": "RootNode (model correction matrix)"
    },
    {
      "children": [
        3,
        4,
        5
      ],
      "name": "Geode"
    },
    {
      "mesh": 0,
      "name": ""
    },
    {
      "mesh": 1,
      "name": ""
    },
    {
      "mesh": 2,
      "name": ""
    }
  ],
  "scene": 0,
  "scenes": [
    {
      "name": "OSG_Scene",
      "nodes": [
        0
      ]
    }
  ]
}

